<?xml version="1.0" encoding="utf-8"?>
<!-- Generator: Adobe Illustrator 18.1.1, SVG Export Plug-In . SVG Version: 6.00 Build 0)  -->
<!DOCTYPE svg PUBLIC "-//W3C//DTD SVG 1.1//EN" "http://www.w3.org/Graphics/SVG/1.1/DTD/svg11.dtd">
<svg version="1.1" id="Layer_1" xmlns="http://www.w3.org/2000/svg" xmlns:xlink="http://www.w3.org/1999/xlink" x="0px" y="0px"
	 width="436.9px" height="137.7px" viewBox="0 0 436.9 137.7" enable-background="new 0 0 436.9 137.7" xml:space="preserve">
<g>
	<path fill="#F2F2F2" d="M56.8,89.5v22.6H2V37.6h54.9v22.6H26.4v5.1h25.5v19.2H26.4v4.9H56.8z"/>
	<path fill="#F2F2F2" d="M124.3,37.5L98.7,88.9h18.9v23.3H59.9l25.5-51.2H66.7V37.5H124.3z"/>
	<path fill="#F2F2F2" d="M193,17.9v27.3h-18.7v67H147v-67h-18.9V17.9H193z"/>
	<path fill="#F2F2F2" d="M262.9,84.8v27.3h-65.4V17.9h65.4v27.3h-38.1v8.5h31.9v22.9h-31.9v8.3H262.9z"/>
	<path fill="#F2F2F2" d="M357.9,17.9v94.2h-27.3V63.4l-17.3,23l-17-23v48.8H269V17.9h27.3l17,22.9l17.3-22.9H357.9z"/>
	<path fill="#F2F2F2" d="M432.2,61c-0.8,5.1-2.5,9.8-5.1,14c-2.6,4.2-5.8,7.7-9.7,10.5c-3.9,2.8-8.2,4.9-12.9,6.1
		c-4.8,1.3-9.7,1.5-14.8,0.7v19.8h-27.3V17.9h27.3c6.6,0,12.7,1,18.3,2.9c5.6,2,10.4,4.8,14.3,8.5c3.9,3.7,6.8,8.2,8.6,13.6
		C432.9,48.2,433.3,54.3,432.2,61z M404.9,55.3c0-2.5-0.9-4.6-2.6-6.4c-1.7-1.7-3.9-2.6-6.4-2.6h-6.2v18.1h6.2
		c2.5,0,4.6-0.9,6.4-2.7C404.1,60,404.9,57.8,404.9,55.3z"/>
</g>
</svg>
