<?xml version="1.0" encoding="utf-8"?>
<!-- Generator: Adobe Illustrator 18.1.1, SVG Export Plug-In . SVG Version: 6.00 Build 0)  -->
<!DOCTYPE svg PUBLIC "-//W3C//DTD SVG 1.1//EN" "http://www.w3.org/Graphics/SVG/1.1/DTD/svg11.dtd">
<svg version="1.1" xmlns="http://www.w3.org/2000/svg" xmlns:xlink="http://www.w3.org/1999/xlink" x="0px" y="0px" width="169.3px"
	 height="169.3px" viewBox="0 0 169.3 169.3" enable-background="new 0 0 169.3 169.3" xml:space="preserve">
<g id="Layer_3">
	<g>
		<defs>
			<rect id="SVGID_1_" x="66.9" y="-422.7" width="856" height="320"/>
		</defs>
		<clipPath id="SVGID_2_">
			<use xlink:href="#SVGID_1_"  overflow="visible"/>
		</clipPath>
		<g clip-path="url(#SVGID_2_)">
			
				<image overflow="visible" width="2208" height="1242" xlink:href="7E471E5E23DC2878.jpg"  transform="matrix(0.4495 0 0 0.5036 -43.9807 -592.3064)">
			</image>
		</g>
		<g clip-path="url(#SVGID_2_)">
			
				<image overflow="visible" width="1920" height="1080" xlink:href="7E471E5E23DC2877.jpg"  transform="matrix(0.4701 0 0 0.5266 69.4424 -419.5798)">
			</image>
		</g>
	</g>
</g>
<g id="MGA_Logo">
	<g>
		
			<image overflow="visible" opacity="0.75" width="88" height="46" xlink:href="7E471E5E23DC288C.png"  transform="matrix(1 0 0 1 461.3333 -249.6667)">
		</image>
		<g>
			
				<text transform="matrix(1 0 0 1 471.2328 -222.7077)" fill="#FFFFFF" font-family="'HelveticaNeue-CondensedBold'" font-size="22.4539">MOVIES</text>
		</g>
	</g>
	<g>
		
			<image overflow="visible" opacity="0.75" width="83" height="46" xlink:href="7E471E5E23DC2891.png"  transform="matrix(1 0 0 1 622.3333 -249.6667)">
		</image>
		<g>
			
				<text transform="matrix(1 0 0 1 632.0982 -222.7077)" fill="#FFFFFF" font-family="'HelveticaNeue-CondensedBold'" font-size="22.4539">GAMES</text>
		</g>
	</g>
	<g>
		
			<image overflow="visible" opacity="0.75" width="77" height="46" xlink:href="7E471E5E23DC2892.png"  transform="matrix(1 0 0 1 774.3333 -249.6667)">
		</image>
		<g>
			
				<text transform="matrix(1 0 0 1 783.6663 -222.7078)" fill="#FFFFFF" font-family="'HelveticaNeue-CondensedBold'" font-size="22.4539">ANIME</text>
		</g>
	</g>
	<g id="guides" display="none">
	</g>
	<g>
		
			<image overflow="visible" opacity="0.75" width="466" height="154" xlink:href="7E471E5E23DC2893.png"  transform="matrix(1 0 0 1 422.3333 -391.6667)">
		</image>
		<g>
			<g>
				<path fill="#F2F2F2" d="M431.9-383.6l12.3,8.7h-12.3V-383.6z M431.9-367.2h23.5l17.1,11.9h-40.6V-367.2z M431.9-349.4h48.7
					l20.3,14.2h-69V-349.4z M468.3-315.6h-36.4v-16.1h123.8l-21.9,16.1h-57.1l-8.4-6.4V-315.6z M431.9-248.8v-64.8h36.4v64.8H431.9z
					 M479.3-313.6h51.9L504.8-294L479.3-313.6z M560.6-335.2h-52.2l20.3-14.2h49.7v1L560.6-335.2z M554.1-367.2h24.2v11.9H537
					L554.1-367.2z M544.8-313.6h33.5v64.8h-36.4v-62.6L544.8-313.6z M569.3-331.7h9v16.1h-31L569.3-331.7z M578.3-383.9v9h-12.9
					L578.3-383.9z M578.3-338.1v2.9h-4.2L578.3-338.1z"/>
				<path fill="#F2F2F2" d="M598.3-367.2h36.4v11.9h-36.4V-367.2z M598.3-349.4h36.4v14.2h-36.4V-349.4z M598.3-331.7h36.4v16.1
					h-36.4V-331.7z M691.8-276.5v-25.2H656v-11.9h72.2v53.2c0,7.7-4.5,11.6-13.5,11.6H613.4c-10.1,0-15.2-3.9-15.2-11.6v-53.2h36.4
					v37.1H691.8z M613.1-383.3h21.6v8.4h-36.1C599.9-380.5,604.7-383.3,613.1-383.3z M643.1-383.3h85.1v8.4h-85.1V-383.3z
					 M643.1-367.2h85.1v11.9h-85.1V-367.2z M656-329.8h72.2v14.2H656V-329.8z"/>
				<path fill="#F2F2F2" d="M748.3-367.2h36.4v11.9h-36.4V-367.2z M748.3-349.4h36.4v14.2h-36.4V-349.4z M841.8-329.8v-1.9h36.8
					v16.1H748.3v-16.1h36.4v1.9H841.8z M748.3-313.6h130.3v64.8h-36.8v-52.9h-57.1v52.9h-36.4V-313.6z M784.7-374.9h-36.1
					c1.7-5.6,6.7-8.4,14.8-8.4h21.3V-374.9z M877.9-374.9h-84.8v-8.4h70.3C871.8-383.3,876.6-380.5,877.9-374.9z M793.1-367.2h85.5
					v11.9h-85.5V-367.2z M841.8-349.4h36.8v14.2h-36.8V-349.4z"/>
			</g>
		</g>
	</g>
</g>
<g id="Profile">
	<rect x="305.3" y="-9.7" fill="none" width="180" height="180"/>
	<g>
		<defs>
			<rect id="SVGID_3_" x="304.3" y="-8.7" width="180" height="180"/>
		</defs>
		<use xlink:href="#SVGID_3_"  overflow="visible" fill="#FFFFFF"/>
		<clipPath id="SVGID_4_">
			<use xlink:href="#SVGID_3_"  overflow="visible"/>
		</clipPath>
		<g clip-path="url(#SVGID_4_)">
			
				<image overflow="visible" width="1920" height="1080" xlink:href="7E471E5E23DC288E.jpg"  transform="matrix(0.4701 0 0 0.5266 288.4425 -182.0798)">
			</image>
		</g>
		<rect x="300.3" y="-8.7" opacity="0.46" clip-path="url(#SVGID_4_)" fill="#FC2BFB" width="189.2" height="180.2"/>
		<linearGradient id="SVGID_5_" gradientUnits="userSpaceOnUse" x1="301.3333" y1="81.3333" x2="487.3333" y2="81.3333">
			<stop  offset="0" style="stop-color:#FD0DFF"/>
			<stop  offset="1" style="stop-color:#5CFBFF"/>
		</linearGradient>
		<use xlink:href="#SVGID_3_"  overflow="visible" fill="none" stroke="url(#SVGID_5_)" stroke-width="6" stroke-miterlimit="10"/>
	</g>
	<g id="head">
		<g>
			<linearGradient id="SVGID_6_" gradientUnits="userSpaceOnUse" x1="393.4344" y1="105.17" x2="393.4344" y2="139.7905">
				<stop  offset="0" style="stop-color:#FD0DFF"/>
				<stop  offset="1" style="stop-color:#5CFBFF"/>
			</linearGradient>
			<path fill="#FFFFFF" stroke="url(#SVGID_6_)" stroke-width="2" stroke-miterlimit="10" d="M426.4,121.1
				c-14.6-0.1-22.9-8.1-29.1-13.3c-4.7-3.9-7.2-0.5-12.9,4.3c-7,5.9-15.3,9-24,9c-1.8-1.6-3.5-3.4-5.1-5.2c-2.9-0.6-5.8-1.5-8.5-2.9
				c21.5,34.4,71.6,34.4,93.1,0c-2.7,1.4-5.6,2.4-8.5,2.9C429.9,117.8,428.2,119.5,426.4,121.1z M368.1,126.7
				c15-3.1,20.1-13.8,25.3-14.3c5.4,0.5,10.1,11.1,25.3,14.3C403.4,135.9,383.9,136.2,368.1,126.7z"/>
			<linearGradient id="SVGID_7_" gradientUnits="userSpaceOnUse" x1="393.4344" y1="5.8541" x2="393.4344" y2="57.8345">
				<stop  offset="0" style="stop-color:#FD0DFF"/>
				<stop  offset="1" style="stop-color:#5CFBFF"/>
			</linearGradient>
			<path fill="#FFFFFF" stroke="url(#SVGID_7_)" stroke-width="2" stroke-miterlimit="10" d="M435.1,56.8l5.7-0.5
				c-8.9-15.3-25.1-25.9-43.7-27.1v-9.4c6.5-3.1,4.3-12.9-2.9-12.9c-7.2,0-9.4,9.8-2.9,12.9v9.3c-19.3,0.8-36,11.5-45.2,27.2
				l5.7,0.5C371.4,26.7,415.4,26.6,435.1,56.8z"/>
			<linearGradient id="SVGID_8_" gradientUnits="userSpaceOnUse" x1="393.4344" y1="58.9595" x2="393.4344" y2="112.1721">
				<stop  offset="0" style="stop-color:#FD0DFF"/>
				<stop  offset="1" style="stop-color:#5CFBFF"/>
			</linearGradient>
			<path fill="#FFFFFF" stroke="url(#SVGID_8_)" stroke-width="2" stroke-miterlimit="10" d="M459.5,86.6h-8.2l2-10.2
				c-1.2,0-3,0-5.5,0c-0.3-2.2-0.7-4.3-1.2-6.3h3.9l3.3-10l-48.6,4.4v5.6l36,0c0.6,2.1,1.1,4.2,1.4,6.3c-20.9,0-77.5,0-98.4,0
				c0.3-2.2,0.8-4.3,1.4-6.3l36,0v-5.6l-48.6-4.4l3.3,10h3.9c-0.5,2.1-1,4.2-1.2,6.3c-2.5,0-4.3,0-5.5,0l2,10.2h-8.2
				c-3.1-6.5-12.9-4.3-12.9,2.9c0,7.2,9.8,9.4,12.9,2.9h9.4c1.4,5.5,4.3,10.2,8.2,13.1c10.4,7.8,23.5,7.3,33.5-1.2
				c5-4.2,8.4-8,14.8-8.2c6.5,0.2,9.9,4,14.8,8.2c10,8.6,23.1,9.1,33.5,1.2c3.9-2.9,6.9-7.6,8.2-13.1h9.4c3.1,6.5,12.9,4.3,12.9-2.9
				C472.4,82.4,462.6,80.1,459.5,86.6z M356.1,101l-6.2-19.2h7l4,17.9L356.1,101z M368.1,91l-3-9.2h6l1.8,7.9L368.1,91z M418.8,91
				l-4.8-1.3l1.8-7.9h6L418.8,91z M430.8,101l-4.8-1.3l4-17.9h7L430.8,101z"/>
		</g>
		<text transform="matrix(1 0 0 1 317.3269 93.2381)" fill="#4D4D4D" font-family="'HelveticaNeue-CondensedBold'" font-size="10">M</text>
		<text transform="matrix(1 0 0 1 463.0918 92.5955)" fill="#4D4D4D" font-family="'HelveticaNeue-CondensedBold'" font-size="10">A</text>
		<text transform="matrix(1 0 0 1 390.9824 16.8666)" fill="#4D4D4D" font-family="'HelveticaNeue-CondensedBold'" font-size="10">G</text>
		<g>
			<linearGradient id="SVGID_9_" gradientUnits="userSpaceOnUse" x1="84.1255" y1="148.3016" x2="84.1255" y2="115.681">
				<stop  offset="0" style="stop-color:#FD0DFF"/>
				<stop  offset="1" style="stop-color:#5CFBFF"/>
			</linearGradient>
			<path fill="url(#SVGID_9_)" stroke="#FFFFFF" stroke-miterlimit="10" d="M117.1,130.6c-14.6-0.1-22.9-8.1-29.1-13.3
				c-4.7-3.9-7.2-0.5-12.9,4.3c-7,5.9-15.3,9-24,9c-1.8-1.6-3.5-3.4-5.1-5.2c-2.9-0.6-5.8-1.5-8.5-2.9c21.5,34.4,71.6,34.4,93.1,0
				c-2.7,1.4-5.6,2.4-8.5,2.9C120.6,127.3,118.9,129,117.1,130.6z M58.8,136.2c15-3.1,20.1-13.8,25.3-14.3
				c5.4,0.5,10.1,11.1,25.3,14.3C94.1,145.4,74.6,145.7,58.8,136.2z"/>
			<linearGradient id="SVGID_10_" gradientUnits="userSpaceOnUse" x1="84.1254" y1="66.2951" x2="84.1254" y2="16.3651">
				<stop  offset="0" style="stop-color:#FD0DFF"/>
				<stop  offset="1" style="stop-color:#5CFBFF"/>
			</linearGradient>
			<path fill="url(#SVGID_10_)" stroke="#FFFFFF" stroke-miterlimit="10" d="M125.8,66.3l5.7-0.5c-8.9-15.3-25.1-25.9-43.7-27.1
				v-9.4c6.5-3.1,4.3-12.9-2.9-12.9c-7.2,0-9.4,9.8-2.9,12.9v9.3c-19.3,0.8-36,11.5-45.2,27.2l5.7,0.5
				C62.1,36.2,106.1,36.1,125.8,66.3z"/>
			<linearGradient id="SVGID_11_" gradientUnits="userSpaceOnUse" x1="84.1254" y1="120.6831" x2="84.1254" y2="69.6054">
				<stop  offset="0" style="stop-color:#FD0DFF"/>
				<stop  offset="1" style="stop-color:#5CFBFF"/>
			</linearGradient>
			<path fill="url(#SVGID_11_)" stroke="#FFFFFF" stroke-miterlimit="10" d="M150.2,96.1h-8.2l2-10.2c-1.2,0-3,0-5.5,0
				c-0.3-2.2-0.7-4.3-1.2-6.3h3.9l3.3-10L95.9,74v5.6l36,0c0.6,2.1,1.1,4.2,1.4,6.3c-20.9,0-77.5,0-98.4,0c0.3-2.2,0.8-4.3,1.4-6.3
				l36,0V74l-48.6-4.4l3.3,10H31c-0.5,2.1-1,4.2-1.2,6.3c-2.5,0-4.3,0-5.5,0l2,10.2h-8.2C15,89.7,5.1,91.9,5.1,99.1
				c0,7.2,9.8,9.4,12.9,2.9h9.4c1.4,5.5,4.3,10.2,8.2,13.1c10.4,7.8,23.5,7.3,33.5-1.2c5-4.2,8.4-8,14.8-8.2c6.5,0.2,9.9,4,14.8,8.2
				c10,8.6,23.1,9.1,33.5,1.2c3.9-2.9,6.9-7.6,8.2-13.1h9.4c3.1,6.5,12.9,4.3,12.9-2.9C163.1,91.9,153.3,89.7,150.2,96.1z
				 M46.8,110.5l-6.2-19.2h7l4,17.9L46.8,110.5z M58.8,100.5l-3-9.2h6l1.8,7.9L58.8,100.5z M109.5,100.5l-4.8-1.3l1.8-7.9h6
				L109.5,100.5z M121.5,110.5l-4.8-1.3l4-17.9h7L121.5,110.5z"/>
		</g>
		<g>
			<path fill="#FFFFFF" d="M10.7,95.6l1,5h0l1-5h2.1v7.1h-1.3V97h0l-1.3,5.7h-1.1L9.9,97h0v5.7H8.5v-7.1H10.7z"/>
		</g>
		<g>
			<path fill="#FFFFFF" d="M157.5,95l1.9,7.1h-1.5l-0.3-1.5h-1.9l-0.3,1.5h-1.5l1.9-7.1H157.5z M157.3,99.4l-0.7-3.2h0l-0.7,3.2
				H157.3z"/>
		</g>
		<g>
			<path fill="#FFFFFF" d="M85.3,20.9c0-0.1-0.1-0.3-0.1-0.4c-0.1-0.1-0.2-0.2-0.3-0.3c-0.1-0.1-0.2-0.1-0.4-0.1
				c-0.3,0-0.6,0.2-0.8,0.6s-0.2,1-0.2,1.9c0,0.4,0,0.8,0,1.2c0,0.3,0.1,0.6,0.1,0.9c0.1,0.2,0.2,0.4,0.3,0.6s0.3,0.2,0.5,0.2
				c0.1,0,0.2,0,0.3-0.1c0.1,0,0.2-0.1,0.3-0.2c0.1-0.1,0.2-0.2,0.2-0.4s0.1-0.3,0.1-0.5v-0.7h-1v-1.1h2.3v3.8h-1.1v-0.7h0
				c-0.2,0.3-0.4,0.5-0.6,0.6c-0.2,0.1-0.5,0.2-0.9,0.2c-0.4,0-0.8-0.1-1.1-0.2c-0.3-0.2-0.5-0.4-0.6-0.7c-0.2-0.3-0.3-0.7-0.3-1.2
				c-0.1-0.5-0.1-1-0.1-1.6c0-0.6,0-1.1,0.1-1.6c0.1-0.5,0.2-0.8,0.4-1.1c0.2-0.3,0.4-0.5,0.7-0.7c0.3-0.2,0.7-0.2,1.1-0.2
				c0.8,0,1.4,0.2,1.7,0.6c0.3,0.4,0.5,0.9,0.5,1.7h-1.4C85.3,21.2,85.3,21.1,85.3,20.9z"/>
		</g>
	</g>
</g>
</svg>
