<?xml version="1.0" encoding="utf-8"?>
<!-- Generator: Adobe Illustrator 18.1.1, SVG Export Plug-In . SVG Version: 6.00 Build 0)  -->
<!DOCTYPE svg PUBLIC "-//W3C//DTD SVG 1.1//EN" "http://www.w3.org/Graphics/SVG/1.1/DTD/svg11.dtd">
<svg version="1.1" id="Layer_1" xmlns="http://www.w3.org/2000/svg" xmlns:xlink="http://www.w3.org/1999/xlink" x="0px" y="0px"
	 width="727.5px" height="270px" viewBox="0 0 727.5 270" enable-background="new 0 0 727.5 270" xml:space="preserve">
<g>
	<g>
		<linearGradient id="SVGID_1_" gradientUnits="userSpaceOnUse" x1="142.1358" y1="220.1516" x2="142.1358" y2="18.071">
			<stop  offset="0" style="stop-color:#FD0DFF"/>
			<stop  offset="1" style="stop-color:#5CFBFF"/>
		</linearGradient>
		<path fill="url(#SVGID_1_)" stroke="#FFFFFF" stroke-width="2" stroke-miterlimit="10" d="M32.7,18.6l18.3,13H32.7V18.6z
			 M32.7,43.2h35.2L93.4,61H32.7V43.2z M32.7,69.7h72.8l30.4,21.2H32.7V69.7z M87.2,120.3H32.7V96.2h185.2l-32.8,24.1H99.7
			l-12.5-9.6V120.3z M32.7,220.2v-96.9h54.5v96.9H32.7z M103.6,123.2h77.6l-39.5,29.4L103.6,123.2z M225.1,90.9H147l30.4-21.2h74.3
			v1.4L225.1,90.9z M215.4,43.2h36.2V61h-61.7L215.4,43.2z M201.5,123.2h50.2v96.9h-54.5v-93.6L201.5,123.2z M238.1,96.2h13.5v24.1
			h-46.3L238.1,96.2z M251.6,18.1v13.5h-19.3L251.6,18.1z M251.6,86.6v4.3h-6.3L251.6,86.6z"/>
		<linearGradient id="SVGID_2_" gradientUnits="userSpaceOnUse" x1="378.6952" y1="220.1516" x2="378.6952" y2="19.0381">
			<stop  offset="0" style="stop-color:#FD0DFF"/>
			<stop  offset="1" style="stop-color:#5CFBFF"/>
		</linearGradient>
		<path fill="url(#SVGID_2_)" stroke="#FFFFFF" stroke-width="2" stroke-miterlimit="10" d="M281.5,43.2H336V61h-54.5V43.2z
			 M281.5,69.7H336v21.2h-54.5V69.7z M281.5,96.2H336v24.1h-54.5V96.2z M421.4,178.7v-37.6h-53.5v-17.8h108v79.6
			c0,11.6-6.8,17.4-20.3,17.4H304.2c-15.1,0-22.7-5.8-22.7-17.4v-79.6H336v55.5H421.4z M303.7,19H336v12.5h-54
			C283.9,23.2,291.2,19,303.7,19z M348.6,19h127.3v12.5H348.6V19z M348.6,43.2h127.3V61H348.6V43.2z M367.8,99.1h108v21.2h-108V99.1
			z"/>
		<linearGradient id="SVGID_3_" gradientUnits="userSpaceOnUse" x1="603.1973" y1="220.1516" x2="603.1973" y2="19.0381">
			<stop  offset="0" style="stop-color:#FD0DFF"/>
			<stop  offset="1" style="stop-color:#5CFBFF"/>
		</linearGradient>
		<path fill="url(#SVGID_3_)" stroke="#FFFFFF" stroke-width="2" stroke-miterlimit="10" d="M505.8,43.2h54.5V61h-54.5V43.2z
			 M505.8,69.7h54.5v21.2h-54.5V69.7z M645.6,99.1v-2.9h55v24.1H505.8V96.2h54.5v2.9H645.6z M505.8,123.2h194.8v96.9h-55v-79.1
			h-85.4v79.1h-54.5V123.2z M560.3,31.6h-54c2.6-8.4,10-12.5,22.2-12.5h31.8V31.6z M699.7,31.6H572.8V19H678
			C690.5,19,697.7,23.2,699.7,31.6z M572.8,43.2h127.8V61H572.8V43.2z M645.6,69.7h55v21.2h-55V69.7z"/>
	</g>
</g>
<g>
	
		<text transform="matrix(1 0 0 1 88.2586 261.8549)" fill="#F2F2F2" font-family="'HelveticaNeue-CondensedBold'" font-size="35.4475">MOVIES</text>
</g>
<g>
	
		<text transform="matrix(1 0 0 1 325.9959 259.769)" fill="#F2F2F2" font-family="'HelveticaNeue-CondensedBold'" font-size="35.4475">GAMES</text>
</g>
<g>
	
		<text transform="matrix(1 0 0 1 557.9012 259.77)" fill="#F2F2F2" font-family="'HelveticaNeue-CondensedBold'" font-size="35.4475">ANIME</text>
</g>
</svg>
