<?xml version="1.0" encoding="utf-8"?>
<!-- Generator: Adobe Illustrator 18.1.1, SVG Export Plug-In . SVG Version: 6.00 Build 0)  -->
<!DOCTYPE svg PUBLIC "-//W3C//DTD SVG 1.1//EN" "http://www.w3.org/Graphics/SVG/1.1/DTD/svg11.dtd">
<svg version="1.1" id="Layer_1" xmlns="http://www.w3.org/2000/svg" xmlns:xlink="http://www.w3.org/1999/xlink" x="0px" y="0px"
	 width="214.8px" height="68.8px" viewBox="-319 386.6 214.8 68.8" enable-background="new -319 386.6 214.8 68.8"
	 xml:space="preserve">
<g>
	<path fill="#F2F2F2" d="M-270.4,388.2V409h-13.2v45.3h-21.6V409h-13.3v-20.7H-270.4z"/>
	<path fill="#F2F2F2" d="M-173.1,388.2l-20.7,66h-22l-4.8-17.3l-4.9,17.3h-22.1l-20.6-66h26.3l6.7,26.8l6.7-26.8h15.8l6.7,26.8
		l6.7-26.8H-173.1z"/>
	<path fill="#F2F2F2" d="M-140.5,387.1c4.9,0,9.5,0.9,13.9,2.7c4.4,1.8,8.2,4.2,11.4,7.3c3.2,3.1,5.8,6.7,7.7,10.9
		c1.9,4.2,2.8,8.6,2.8,13.3c0,4.8-0.9,9.2-2.8,13.3c-1.9,4.1-4.4,7.8-7.7,10.9s-7,5.5-11.4,7.3s-9,2.6-13.9,2.6c-5,0-9.6-0.9-14-2.6
		c-4.3-1.8-8.1-4.2-11.3-7.3s-5.8-6.7-7.7-10.9c-1.9-4.1-2.8-8.6-2.8-13.3c0-4.7,0.9-9.1,2.8-13.3c1.9-4.2,4.4-7.8,7.7-10.9
		c3.2-3.1,7-5.5,11.3-7.3C-150.1,388-145.5,387.1-140.5,387.1z M-126.8,421.1c0-1.8-0.3-3.4-1-5c-0.7-1.6-1.7-2.9-2.9-4.1
		c-1.2-1.1-2.7-2.1-4.3-2.7c-1.7-0.7-3.4-1-5.2-1s-3.6,0.3-5.2,1c-1.7,0.7-3.1,1.6-4.3,2.7c-1.2,1.1-2.1,2.5-2.9,4.1
		c-0.7,1.6-1.1,3.2-1.1,5c0,1.8,0.4,3.4,1.1,5c0.7,1.6,1.7,2.9,2.9,4.1c1.2,1.1,2.6,2.1,4.3,2.7c1.6,0.7,3.4,1,5.2,1s3.6-0.3,5.2-1
		c1.6-0.7,3.1-1.6,4.3-2.7c1.2-1.1,2.2-2.5,2.9-4.1C-127.1,424.5-126.8,422.8-126.8,421.1z"/>
</g>
</svg>
