<?xml version="1.0" encoding="utf-8"?>
<!-- Generator: Adobe Illustrator 18.1.1, SVG Export Plug-In . SVG Version: 6.00 Build 0)  -->
<!DOCTYPE svg PUBLIC "-//W3C//DTD SVG 1.1//EN" "http://www.w3.org/Graphics/SVG/1.1/DTD/svg11.dtd">
<svg version="1.1" id="Layer_1" xmlns="http://www.w3.org/2000/svg" xmlns:xlink="http://www.w3.org/1999/xlink" x="0px" y="0px"
	 width="214.8px" height="83.2px" viewBox="-319 376.1 214.8 83.2" enable-background="new -319 376.1 214.8 83.2"
	 xml:space="preserve">
<g>
	<path fill="#F2F2F2" d="M-275.4,376.1c6,0,11.6,1.1,17,3.3c5.3,2.2,9.9,5.2,13.9,8.9c3.9,3.7,7,8.1,9.3,13.2
		c2.3,5.1,3.4,10.5,3.4,16.2c0,5.8-1.1,11.2-3.4,16.2c-2.3,5-5.4,9.5-9.3,13.2s-8.5,6.7-13.9,8.9s-11,3.2-17,3.2
		c-6.1,0-11.7-1.1-17-3.2c-5.3-2.1-9.9-5.1-13.8-8.9s-7-8.2-9.3-13.2c-2.3-5-3.4-10.5-3.4-16.2c0-5.7,1.1-11.1,3.4-16.2
		c2.3-5.1,5.4-9.5,9.3-13.2c3.9-3.7,8.5-6.7,13.8-8.9C-287.2,377.2-281.5,376.1-275.4,376.1z M-258.8,417.5c0-2.1-0.4-4.2-1.3-6.1
		c-0.8-1.9-2-3.6-3.5-5c-1.5-1.4-3.2-2.5-5.3-3.3c-2-0.8-4.1-1.3-6.4-1.3s-4.4,0.4-6.4,1.3c-2,0.8-3.7,2-5.2,3.3
		c-1.4,1.4-2.6,3-3.5,5c-0.9,1.9-1.3,3.9-1.3,6.1c0,2.1,0.4,4.2,1.3,6.1c0.9,1.9,2.1,3.6,3.5,5c1.4,1.4,3.2,2.5,5.2,3.3
		c2,0.8,4.1,1.3,6.4,1.3s4.4-0.4,6.4-1.3c2-0.8,3.8-2,5.3-3.3c1.5-1.4,2.7-3,3.5-5C-259.2,421.7-258.8,419.6-258.8,417.5z"/>
	<path fill="#F2F2F2" d="M-168.5,377.5v80.4h-23.3l-13.7-24.1v24.1h-23.3v-80.4h23.1l11.9,25.5v-25.5H-168.5z"/>
	<path fill="#F2F2F2" d="M-104.5,433.5v24.4h-59.1v-80.3h59.1V402h-32.8v5.5h27.5v20.7h-27.5v5.3H-104.5z"/>
</g>
</svg>
