<?xml version="1.0" encoding="utf-8"?>
<!-- Generator: Adobe Illustrator 18.1.1, SVG Export Plug-In . SVG Version: 6.00 Build 0)  -->
<!DOCTYPE svg PUBLIC "-//W3C//DTD SVG 1.1//EN" "http://www.w3.org/Graphics/SVG/1.1/DTD/svg11.dtd">
<svg version="1.1" xmlns="http://www.w3.org/2000/svg" xmlns:xlink="http://www.w3.org/1999/xlink" x="0px" y="0px" width="295px"
	 height="135.9px" viewBox="0 0 295 135.9" enable-background="new 0 0 295 135.9" xml:space="preserve">
<g id="Background">
</g>
<g id="v1" display="none">
	<g id="guides">
	</g>
</g>
<g id="v2" display="none">
</g>
<g id="Layer_5" display="none">
</g>
<g id="guides_1_">
</g>
<g id="MGA_Movie_Time">
	<text transform="matrix(1 0 0 1 65.0029 131.937)" fill="#F2F2F2" font-family="'HelveticaNeue-BoldItalic'" font-size="16.0939">DOWNLOADABLE CONTENT</text>
	<text transform="matrix(1 0 0 1 58.4214 115.2301)" fill="#F2F2F2" font-family="'HelveticaNeue-CondensedBold'" font-size="150">DLC</text>
	<g>
		<path fill="#F2F2F2" d="M9.7,6.4L13,8.8H9.7V6.4z M9.7,10.9h6.4l4.6,3.2h-11V10.9z M9.7,15.7h13.2l5.5,3.9H9.7V15.7z M19.6,24.9
			H9.7v-4.4h33.6l-6,4.4H21.8l-2.3-1.8V24.9z M9.7,43V25.4h9.9V43H9.7z M22.5,25.4h14.1l-7.2,5.3L22.5,25.4z M44.6,19.5H30.4
			l5.5-3.9h13.5v0.3L44.6,19.5z M42.9,10.9h6.6v3.2H38.2L42.9,10.9z M40.3,25.4h9.1V43h-9.9V26L40.3,25.4z M47,20.5h2.5v4.4H41
			L47,20.5z M49.4,6.3v2.5h-3.5L49.4,6.3z M49.4,18.7v0.8h-1.1L49.4,18.7z"/>
		<path fill="#F2F2F2" d="M11.9,54.2h9.9v3.2h-9.9V54.2z M11.9,59h9.9v3.9h-9.9V59z M11.9,63.8h9.9v4.4h-9.9V63.8z M37.3,78.8v-6.8
			h-9.7v-3.2h19.6v14.4c0,2.1-1.2,3.2-3.7,3.2H16c-2.7,0-4.1-1.1-4.1-3.2V68.7h9.9v10.1H37.3z M15.9,49.8h5.9v2.3H12
			C12.3,50.6,13.7,49.8,15.9,49.8z M24.1,49.8h23.1v2.3H24.1V49.8z M24.1,54.2h23.1v3.2H24.1V54.2z M27.6,64.3h19.6v3.9H27.6V64.3z"
			/>
		<path fill="#F2F2F2" d="M11.9,97.6h9.9v3.2h-9.9V97.6z M11.9,102.4h9.9v3.9h-9.9V102.4z M37.3,107.7v-0.5h10v4.4H11.9v-4.4h9.9
			v0.5H37.3z M11.9,112.1h35.4v17.6h-10v-14.4H21.8v14.4h-9.9V112.1z M21.8,95.5H12c0.5-1.5,1.8-2.3,4-2.3h5.8V95.5z M47.1,95.5H24
			v-2.3h19.1C45.4,93.2,46.7,93.9,47.1,95.5z M24,97.6h23.2v3.2H24V97.6z M37.3,102.4h10v3.9h-10V102.4z"/>
	</g>
	<linearGradient id="SVGID_1_" gradientUnits="userSpaceOnUse" x1="56" y1="69" x2="57" y2="69">
		<stop  offset="0" style="stop-color:#FD0DFF"/>
		<stop  offset="1" style="stop-color:#5CFBFF"/>
	</linearGradient>
	<line fill="none" stroke="url(#SVGID_1_)" stroke-miterlimit="10" x1="56.5" y1="133" x2="56.5" y2="5"/>
</g>
<g id="tv">
	<g id="graphic">
	</g>
	<g id="Layer_10">
	</g>
</g>
<g id="Layer_11">
</g>
</svg>
